<svg width="1510" height="401" viewBox="0 0 1510 401" fill="none" xmlns="http://www.w3.org/2000/svg">
<path d="M160.86 11.5998H192.72L352.021 395H312.06L262.38 275.12H90.1205L40.9805 395H0.480469L160.86 11.5998ZM253.74 245.42L176.52 55.8798L98.2205 245.42H253.74Z" fill="black" fill-opacity="0.08"/>
<path d="M537.122 400.4C514.802 400.4 494.282 394.82 475.562 383.66C457.202 372.5 442.802 358.1 432.362 340.46V395H399.422V0.799805H436.142V172.52C448.742 153.44 463.862 138.14 481.502 126.62C499.142 114.74 519.662 108.8 543.062 108.8C562.862 108.8 580.502 112.94 595.982 121.22C611.822 129.5 625.142 140.66 635.942 154.7C647.102 168.38 655.562 184.04 661.322 201.68C667.442 218.96 670.502 236.78 670.502 255.14C670.502 274.94 667.082 293.66 660.242 311.3C653.402 328.94 644.042 344.42 632.162 357.74C620.282 370.7 606.062 381.14 589.502 389.06C573.302 396.62 555.842 400.4 537.122 400.4ZM528.482 368C543.962 368 558.002 364.94 570.602 358.82C583.562 352.34 594.542 343.88 603.542 333.44C612.902 322.64 620.102 310.58 625.142 297.26C630.542 283.58 633.242 269.54 633.242 255.14C633.242 240.38 630.722 226.16 625.682 212.48C621.002 198.8 614.162 186.74 605.162 176.3C596.522 165.5 585.902 157.04 573.302 150.92C561.062 144.44 547.562 141.2 532.802 141.2C521.642 141.2 511.202 143.18 501.482 147.14C491.762 150.74 482.762 155.78 474.482 162.26C466.202 168.74 458.822 176.3 452.342 184.94C445.862 193.22 440.462 202.04 436.142 211.4V298.88C437.582 308.6 441.362 317.78 447.482 326.42C453.962 334.7 461.522 341.9 470.162 348.02C479.162 354.14 488.702 359 498.782 362.6C509.222 366.2 519.122 368 528.482 368Z" fill="black" fill-opacity="0.08"/>
<path d="M852.584 400.4C832.064 400.4 813.344 396.62 796.424 389.06C779.504 381.14 764.744 370.52 752.144 357.2C739.904 343.88 730.364 328.4 723.524 310.76C716.684 293.12 713.264 274.58 713.264 255.14C713.264 235.34 716.684 216.62 723.524 198.98C730.724 181.34 740.444 165.86 752.684 152.54C765.284 139.22 780.044 128.6 796.964 120.68C813.884 112.76 832.424 108.8 852.584 108.8C872.744 108.8 891.284 112.76 908.204 120.68C925.484 128.6 940.244 139.22 952.484 152.54C965.084 165.86 974.804 181.34 981.644 198.98C988.844 216.62 992.444 235.34 992.444 255.14C992.444 274.58 989.024 293.12 982.184 310.76C975.344 328.4 965.624 343.88 953.024 357.2C940.784 370.52 926.024 381.14 908.744 389.06C891.824 396.62 873.104 400.4 852.584 400.4ZM750.524 255.68C750.524 271.52 753.224 286.28 758.624 299.96C764.024 313.28 771.224 325.16 780.224 335.6C789.584 345.68 800.384 353.6 812.624 359.36C825.224 365.12 838.544 368 852.584 368C866.624 368 879.764 365.12 892.004 359.36C904.604 353.24 915.584 345.14 924.944 335.06C934.304 324.62 941.684 312.56 947.084 298.88C952.484 285.2 955.184 270.44 955.184 254.6C955.184 239.12 952.484 224.54 947.084 210.86C941.684 196.82 934.304 184.76 924.944 174.68C915.584 164.24 904.604 156.14 892.004 150.38C879.764 144.26 866.624 141.2 852.584 141.2C838.544 141.2 825.404 144.26 813.164 150.38C800.924 156.14 790.124 164.24 780.764 174.68C771.404 185.12 764.024 197.36 758.624 211.4C753.224 225.08 750.524 239.84 750.524 255.68Z" fill="black" fill-opacity="0.08"/>
<path d="M1141.88 400.4C1111.28 400.4 1088.42 390.32 1073.3 370.16C1058.54 349.64 1051.16 319.22 1051.16 278.9V113.66H1087.88V272.42C1087.88 336.14 1109.66 368 1153.22 368C1164.02 368 1174.64 366.2 1185.08 362.6C1195.52 359 1205.06 353.78 1213.7 346.94C1222.7 340.1 1230.62 332 1237.46 322.64C1244.66 313.28 1250.42 302.66 1254.74 290.78V113.66H1291.46V347.48C1291.46 357.56 1295.78 362.6 1304.42 362.6V395C1300.1 395.72 1296.5 396.08 1293.62 396.08C1291.1 396.08 1289.3 396.08 1288.22 396.08C1279.58 395.72 1272.56 392.66 1267.16 386.9C1261.76 381.14 1259.06 373.4 1259.06 363.68V331.28C1246.82 353.24 1230.08 370.34 1208.84 382.58C1187.96 394.46 1165.64 400.4 1141.88 400.4Z" fill="black" fill-opacity="0.08"/>
<path d="M1509.48 381.5C1507.32 382.58 1504.08 384.02 1499.76 385.82C1495.8 387.62 1491.12 389.42 1485.72 391.22C1480.32 393.02 1474.2 394.64 1467.36 396.08C1460.52 397.52 1453.32 398.24 1445.76 398.24C1437.84 398.24 1430.28 397.16 1423.08 395C1415.88 392.84 1409.58 389.6 1404.18 385.28C1398.78 380.6 1394.46 374.84 1391.22 368C1387.98 361.16 1386.36 353.24 1386.36 344.24V142.82H1347.48V113.66H1386.36V18.6198H1423.08V113.66H1487.88V142.82H1423.08V333.98C1423.8 344.42 1427.4 352.16 1433.88 357.2C1440.72 361.88 1448.46 364.22 1457.1 364.22C1467.54 364.22 1476.72 362.6 1484.64 359.36C1492.56 355.76 1497.6 353.24 1499.76 351.8L1509.48 381.5Z" fill="black" fill-opacity="0.08"/>
</svg>
