<svg width="1509" height="400" viewBox="0 0 1509 400" fill="none" xmlns="http://www.w3.org/2000/svg">
<path d="M160.38 10.8H192.24L351.54 394.2H311.58L261.9 274.32H89.64L40.5 394.2H0L160.38 10.8ZM253.26 244.62L176.04 55.08L97.74 244.62H253.26Z" fill="white" fill-opacity="0.12"/>
<path d="M536.642 399.6C514.322 399.6 493.802 394.02 475.082 382.86C456.722 371.7 442.322 357.3 431.882 339.66V394.2H398.942V0H435.662V171.72C448.262 152.64 463.382 137.34 481.022 125.82C498.662 113.94 519.182 108 542.582 108C562.382 108 580.022 112.14 595.502 120.42C611.342 128.7 624.662 139.86 635.462 153.9C646.622 167.58 655.082 183.24 660.842 200.88C666.962 218.16 670.022 235.98 670.022 254.34C670.022 274.14 666.602 292.86 659.762 310.5C652.922 328.14 643.562 343.62 631.682 356.94C619.802 369.9 605.582 380.34 589.022 388.26C572.822 395.82 555.362 399.6 536.642 399.6ZM528.002 367.2C543.482 367.2 557.522 364.14 570.122 358.02C583.082 351.54 594.062 343.08 603.062 332.64C612.422 321.84 619.622 309.78 624.662 296.46C630.062 282.78 632.762 268.74 632.762 254.34C632.762 239.58 630.242 225.36 625.202 211.68C620.522 198 613.682 185.94 604.682 175.5C596.042 164.7 585.422 156.24 572.822 150.12C560.582 143.64 547.082 140.4 532.322 140.4C521.162 140.4 510.722 142.38 501.002 146.34C491.282 149.94 482.282 154.98 474.002 161.46C465.722 167.94 458.342 175.5 451.862 184.14C445.382 192.42 439.982 201.24 435.662 210.6V298.08C437.102 307.8 440.882 316.98 447.002 325.62C453.482 333.9 461.042 341.1 469.682 347.22C478.682 353.34 488.222 358.2 498.302 361.8C508.742 365.4 518.642 367.2 528.002 367.2Z" fill="white" fill-opacity="0.12"/>
<path d="M852.103 399.6C831.583 399.6 812.863 395.82 795.943 388.26C779.023 380.34 764.263 369.72 751.663 356.4C739.423 343.08 729.883 327.6 723.043 309.96C716.203 292.32 712.783 273.78 712.783 254.34C712.783 234.54 716.203 215.82 723.043 198.18C730.243 180.54 739.963 165.06 752.203 151.74C764.803 138.42 779.563 127.8 796.483 119.88C813.403 111.96 831.943 108 852.103 108C872.263 108 890.803 111.96 907.723 119.88C925.003 127.8 939.763 138.42 952.003 151.74C964.603 165.06 974.323 180.54 981.163 198.18C988.363 215.82 991.963 234.54 991.963 254.34C991.963 273.78 988.543 292.32 981.703 309.96C974.863 327.6 965.143 343.08 952.543 356.4C940.303 369.72 925.543 380.34 908.263 388.26C891.343 395.82 872.623 399.6 852.103 399.6ZM750.043 254.88C750.043 270.72 752.743 285.48 758.143 299.16C763.543 312.48 770.743 324.36 779.743 334.8C789.103 344.88 799.903 352.8 812.143 358.56C824.743 364.32 838.063 367.2 852.103 367.2C866.143 367.2 879.283 364.32 891.523 358.56C904.123 352.44 915.103 344.34 924.463 334.26C933.823 323.82 941.203 311.76 946.603 298.08C952.003 284.4 954.703 269.64 954.703 253.8C954.703 238.32 952.003 223.74 946.603 210.06C941.203 196.02 933.823 183.96 924.463 173.88C915.103 163.44 904.123 155.34 891.523 149.58C879.283 143.46 866.143 140.4 852.103 140.4C838.063 140.4 824.923 143.46 812.683 149.58C800.443 155.34 789.643 163.44 780.283 173.88C770.923 184.32 763.543 196.56 758.143 210.6C752.743 224.28 750.043 239.04 750.043 254.88Z" fill="white" fill-opacity="0.12"/>
<path d="M1141.4 399.6C1110.8 399.6 1087.94 389.52 1072.82 369.36C1058.06 348.84 1050.68 318.42 1050.68 278.1V112.86H1087.4V271.62C1087.4 335.34 1109.18 367.2 1152.74 367.2C1163.54 367.2 1174.16 365.4 1184.6 361.8C1195.04 358.2 1204.58 352.98 1213.22 346.14C1222.22 339.3 1230.14 331.2 1236.98 321.84C1244.18 312.48 1249.94 301.86 1254.26 289.98V112.86H1290.98V346.68C1290.98 356.76 1295.3 361.8 1303.94 361.8V394.2C1299.62 394.92 1296.02 395.28 1293.14 395.28C1290.62 395.28 1288.82 395.28 1287.74 395.28C1279.1 394.92 1272.08 391.86 1266.68 386.1C1261.28 380.34 1258.58 372.6 1258.58 362.88V330.48C1246.34 352.44 1229.6 369.54 1208.36 381.78C1187.48 393.66 1165.16 399.6 1141.4 399.6Z" fill="white" fill-opacity="0.12"/>
<path d="M1509 380.7C1506.84 381.78 1503.6 383.22 1499.28 385.02C1495.32 386.82 1490.64 388.62 1485.24 390.42C1479.84 392.22 1473.72 393.84 1466.88 395.28C1460.04 396.72 1452.84 397.44 1445.28 397.44C1437.36 397.44 1429.8 396.36 1422.6 394.2C1415.4 392.04 1409.1 388.8 1403.7 384.48C1398.3 379.8 1393.98 374.04 1390.74 367.2C1387.5 360.36 1385.88 352.44 1385.88 343.44V142.02H1347V112.86H1385.88V17.82H1422.6V112.86H1487.4V142.02H1422.6V333.18C1423.32 343.62 1426.92 351.36 1433.4 356.4C1440.24 361.08 1447.98 363.42 1456.62 363.42C1467.06 363.42 1476.24 361.8 1484.16 358.56C1492.08 354.96 1497.12 352.44 1499.28 351L1509 380.7Z" fill="white" fill-opacity="0.12"/>
</svg>
