<svg width="2840" height="401" viewBox="0 0 2840 401" fill="none" xmlns="http://www.w3.org/2000/svg">
<path d="M0.680002 200.6C0.680002 177.56 4.64 154.7 12.56 132.02C20.84 108.98 32.72 88.46 48.2 70.46C63.68 52.46 82.76 37.88 105.44 26.72C128.12 15.2 153.86 9.43998 182.66 9.43998C216.86 9.43998 246.02 17.18 270.14 32.66C294.62 48.14 312.62 68.3 324.14 93.14L294.44 111.5C288.32 98.9 280.76 88.28 271.76 79.64C263.12 71 253.76 63.98 243.68 58.58C233.6 53.18 223.16 49.4 212.36 47.24C201.56 44.72 190.94 43.46 180.5 43.46C157.46 43.46 137.12 48.14 119.48 57.5C101.84 66.86 86.9 79.1 74.66 94.22C62.78 109.34 53.78 126.44 47.66 145.52C41.54 164.24 38.48 183.32 38.48 202.76C38.48 224 42.08 244.34 49.28 263.78C56.84 283.22 66.92 300.5 79.52 315.62C92.48 330.38 107.6 342.26 124.88 351.26C142.52 359.9 161.6 364.22 182.12 364.22C192.92 364.22 203.9 362.96 215.06 360.44C226.58 357.56 237.56 353.24 248 347.48C258.8 341.36 268.7 333.98 277.7 325.34C286.7 316.34 294.26 305.54 300.38 292.94L331.7 309.14C325.58 323.54 316.94 336.32 305.78 347.48C294.62 358.28 282.2 367.46 268.52 375.02C254.84 382.58 240.26 388.34 224.78 392.3C209.66 396.26 194.72 398.24 179.96 398.24C153.68 398.24 129.56 392.48 107.6 380.96C85.64 369.44 66.74 354.5 50.9 336.14C35.06 317.42 22.64 296.36 13.64 272.96C5 249.2 0.680002 225.08 0.680002 200.6ZM508.575 400.4C488.055 400.4 469.335 396.62 452.415 389.06C435.495 381.14 420.735 370.52 408.135 357.2C395.895 343.88 386.355 328.4 379.515 310.76C372.675 293.12 369.255 274.58 369.255 255.14C369.255 235.34 372.675 216.62 379.515 198.98C386.715 181.34 396.435 165.86 408.675 152.54C421.275 139.22 436.035 128.6 452.955 120.68C469.875 112.76 488.415 108.8 508.575 108.8C528.735 108.8 547.275 112.76 564.195 120.68C581.475 128.6 596.235 139.22 608.475 152.54C621.075 165.86 630.795 181.34 637.635 198.98C644.835 216.62 648.435 235.34 648.435 255.14C648.435 274.58 645.015 293.12 638.175 310.76C631.335 328.4 621.615 343.88 609.015 357.2C596.775 370.52 582.015 381.14 564.735 389.06C547.815 396.62 529.095 400.4 508.575 400.4ZM406.515 255.68C406.515 271.52 409.215 286.28 414.615 299.96C420.015 313.28 427.215 325.16 436.215 335.6C445.575 345.68 456.375 353.6 468.615 359.36C481.215 365.12 494.535 368 508.575 368C522.615 368 535.755 365.12 547.995 359.36C560.595 353.24 571.575 345.14 580.935 335.06C590.295 324.62 597.675 312.56 603.075 298.88C608.475 285.2 611.175 270.44 611.175 254.6C611.175 239.12 608.475 224.54 603.075 210.86C597.675 196.82 590.295 184.76 580.935 174.68C571.575 164.24 560.595 156.14 547.995 150.38C535.755 144.26 522.615 141.2 508.575 141.2C494.535 141.2 481.395 144.26 469.155 150.38C456.915 156.14 446.115 164.24 436.755 174.68C427.395 185.12 420.015 197.36 414.615 211.4C409.215 225.08 406.515 239.84 406.515 255.68ZM797.868 400.4C767.268 400.4 744.408 390.32 729.288 370.16C714.528 349.64 707.148 319.22 707.148 278.9V113.66H743.868V272.42C743.868 336.14 765.648 368 809.208 368C820.008 368 830.628 366.2 841.068 362.6C851.508 359 861.048 353.78 869.688 346.94C878.688 340.1 886.608 332 893.448 322.64C900.648 313.28 906.408 302.66 910.728 290.78V113.66H947.448V347.48C947.448 357.56 951.768 362.6 960.408 362.6V395C956.088 395.72 952.488 396.08 949.608 396.08C947.088 396.08 945.288 396.08 944.208 396.08C935.568 395.72 928.548 392.66 923.148 386.9C917.748 381.14 915.048 373.4 915.048 363.68V331.28C902.808 353.24 886.068 370.34 864.828 382.58C843.948 394.46 821.628 400.4 797.868 400.4ZM1266.99 395H1230.27V237.86C1230.27 204.38 1225.23 180.08 1215.15 164.96C1205.43 149.84 1190.31 142.28 1169.79 142.28C1158.99 142.28 1148.19 144.26 1137.39 148.22C1126.59 152.18 1116.51 157.76 1107.15 164.96C1098.15 172.16 1090.05 180.8 1082.85 190.88C1075.65 200.6 1070.43 211.22 1067.19 222.74V395H1030.47V113.66H1063.95V177.38C1075.47 156.86 1091.85 140.3 1113.09 127.7C1134.69 115.1 1158.09 108.8 1183.29 108.8C1198.77 108.8 1211.91 111.68 1222.71 117.44C1233.51 123.2 1242.15 131.3 1248.63 141.74C1255.11 152.18 1259.79 164.96 1262.67 180.08C1265.55 195.2 1266.99 211.94 1266.99 230.3V395ZM1477.66 381.5C1475.5 382.58 1472.26 384.02 1467.94 385.82C1463.98 387.62 1459.3 389.42 1453.9 391.22C1448.5 393.02 1442.38 394.64 1435.54 396.08C1428.7 397.52 1421.5 398.24 1413.94 398.24C1406.02 398.24 1398.46 397.16 1391.26 395C1384.06 392.84 1377.76 389.6 1372.36 385.28C1366.96 380.6 1362.64 374.84 1359.4 368C1356.16 361.16 1354.54 353.24 1354.54 344.24V142.82H1315.66V113.66H1354.54V18.62H1391.26V113.66H1456.06V142.82H1391.26V333.98C1391.98 344.42 1395.58 352.16 1402.06 357.2C1408.9 361.88 1416.64 364.22 1425.28 364.22C1435.72 364.22 1444.9 362.6 1452.82 359.36C1460.74 355.76 1465.78 353.24 1467.94 351.8L1477.66 381.5ZM1632.24 400.4C1612.8 400.4 1594.8 396.44 1578.24 388.52C1561.68 380.24 1547.46 369.44 1535.58 356.12C1523.7 342.8 1514.34 327.5 1507.5 310.22C1501.02 292.58 1497.78 274.22 1497.78 255.14C1497.78 235.34 1501.02 216.62 1507.5 198.98C1513.98 180.98 1522.8 165.32 1533.96 152C1545.48 138.68 1558.98 128.24 1574.46 120.68C1590.3 112.76 1607.58 108.8 1626.3 108.8C1650.06 108.8 1671.12 115.1 1689.48 127.7C1707.84 139.94 1722.24 154.88 1732.68 172.52V0.79999H1769.4V347.48C1769.4 357.56 1773.72 362.6 1782.36 362.6V395C1776.96 396.08 1772.64 396.62 1769.4 396.62C1760.76 396.62 1753.2 393.92 1746.72 388.52C1740.24 382.76 1737 375.92 1737 368V340.46C1725.84 358.82 1710.72 373.4 1691.64 384.2C1672.56 395 1652.76 400.4 1632.24 400.4ZM1640.34 368C1649.34 368 1658.88 366.2 1668.96 362.6C1679.4 359 1689.12 354.14 1698.12 348.02C1707.12 341.54 1714.68 334.16 1720.8 325.88C1727.28 317.24 1731.24 308.06 1732.68 298.34V211.4C1729.08 201.68 1723.86 192.68 1717.02 184.4C1710.18 175.76 1702.26 168.2 1693.26 161.72C1684.62 155.24 1675.26 150.2 1665.18 146.6C1655.1 143 1645.2 141.2 1635.48 141.2C1620.36 141.2 1606.68 144.44 1594.44 150.92C1582.2 157.4 1571.58 166.04 1562.58 176.84C1553.94 187.28 1547.28 199.34 1542.6 213.02C1537.92 226.7 1535.58 240.74 1535.58 255.14C1535.58 270.26 1538.28 284.66 1543.68 298.34C1549.08 312.02 1556.46 324.08 1565.82 334.52C1575.18 344.6 1586.16 352.7 1598.76 358.82C1611.72 364.94 1625.58 368 1640.34 368ZM1972.48 400.4C1951.96 400.4 1933.24 396.62 1916.32 389.06C1899.4 381.14 1884.64 370.52 1872.04 357.2C1859.8 343.88 1850.26 328.4 1843.42 310.76C1836.58 293.12 1833.16 274.58 1833.16 255.14C1833.16 235.34 1836.58 216.62 1843.42 198.98C1850.62 181.34 1860.34 165.86 1872.58 152.54C1885.18 139.22 1899.94 128.6 1916.86 120.68C1933.78 112.76 1952.32 108.8 1972.48 108.8C1992.64 108.8 2011.18 112.76 2028.1 120.68C2045.38 128.6 2060.14 139.22 2072.38 152.54C2084.98 165.86 2094.7 181.34 2101.54 198.98C2108.74 216.62 2112.34 235.34 2112.34 255.14C2112.34 274.58 2108.92 293.12 2102.08 310.76C2095.24 328.4 2085.52 343.88 2072.92 357.2C2060.68 370.52 2045.92 381.14 2028.64 389.06C2011.72 396.62 1993 400.4 1972.48 400.4ZM1870.42 255.68C1870.42 271.52 1873.12 286.28 1878.52 299.96C1883.92 313.28 1891.12 325.16 1900.12 335.6C1909.48 345.68 1920.28 353.6 1932.52 359.36C1945.12 365.12 1958.44 368 1972.48 368C1986.52 368 1999.66 365.12 2011.9 359.36C2024.5 353.24 2035.48 345.14 2044.84 335.06C2054.2 324.62 2061.58 312.56 2066.98 298.88C2072.38 285.2 2075.08 270.44 2075.08 254.6C2075.08 239.12 2072.38 224.54 2066.98 210.86C2061.58 196.82 2054.2 184.76 2044.84 174.68C2035.48 164.24 2024.5 156.14 2011.9 150.38C1999.66 144.26 1986.52 141.2 1972.48 141.2C1958.44 141.2 1945.3 144.26 1933.06 150.38C1920.82 156.14 1910.02 164.24 1900.66 174.68C1891.3 185.12 1883.92 197.36 1878.52 211.4C1873.12 225.08 1870.42 239.84 1870.42 255.68ZM2517.97 113.66H2554.15L2433.19 395H2402.95L2342.47 251.36L2282.53 395H2252.29L2131.33 113.66H2166.97L2269.57 357.2L2323.03 228.68L2274.97 114.2H2305.75L2342.47 206L2379.19 114.2H2410.51L2362.45 228.68L2415.91 357.2L2517.97 113.66ZM2839.53 395H2802.81V237.86C2802.81 204.38 2797.77 180.08 2787.69 164.96C2777.97 149.84 2762.85 142.28 2742.33 142.28C2731.53 142.28 2720.73 144.26 2709.93 148.22C2699.13 152.18 2689.05 157.76 2679.69 164.96C2670.69 172.16 2662.59 180.8 2655.39 190.88C2648.19 200.6 2642.97 211.22 2639.73 222.74V395H2603.01V113.66H2636.49V177.38C2648.01 156.86 2664.39 140.3 2685.63 127.7C2707.23 115.1 2730.63 108.8 2755.83 108.8C2771.31 108.8 2784.45 111.68 2795.25 117.44C2806.05 123.2 2814.69 131.3 2821.17 141.74C2827.65 152.18 2832.33 164.96 2835.21 180.08C2838.09 195.2 2839.53 211.94 2839.53 230.3V395Z" fill="white" fill-opacity="0.08"/>
</svg>
