<svg width="1440" height="303" viewBox="0 0 1440 303" fill="none" xmlns="http://www.w3.org/2000/svg">
<g clip-path="url(#clip0)">
<path d="M7.98777 -18.5813L-0.955918 -43.4541L12.9217 -39.7356L17.6197 -26.0916L28.4256 -35.5814L41.8741 -31.9779L21.7613 -15.1669L31.8145 12.7548L17.9388 9.03676L12.426 -7.39367L-0.563422 4.0791L-14.1832 0.429697L7.98777 -18.5813Z" fill="black" fill-opacity="0.02"/>
<path d="M57.8491 -5.22099L48.9054 -30.0938L62.7831 -26.3753L67.481 -12.7313L78.2869 -22.221L91.7354 -18.6175L71.6226 -1.80656L81.6759 26.1151L67.8002 22.3971L62.2874 5.96668L49.2979 17.4395L35.6781 13.79L57.8491 -5.22099Z" fill="black" fill-opacity="0.02"/>
<path d="M107.711 8.13936L98.7677 -16.7334L112.645 -13.0149L117.343 0.629074L128.149 -8.86068L141.598 -5.25717L121.485 11.5538L131.538 39.4755L117.662 35.7575L112.15 19.327L99.1602 30.7998L85.5404 27.1504L107.711 8.13936Z" fill="black" fill-opacity="0.02"/>
<path d="M157.573 21.4997L148.629 -3.37308L162.507 0.345428L167.205 13.9894L178.011 4.49968L191.459 8.10319L171.346 24.9141L181.4 52.8358L167.524 49.1178L162.011 32.6874L149.022 44.1602L135.402 40.5108L157.573 21.4997Z" fill="black" fill-opacity="0.02"/>
<path d="M207.434 34.8601L198.49 9.98728L212.368 13.7058L217.066 27.3498L227.872 17.86L241.32 21.4635L221.208 38.2745L231.261 66.1962L217.385 62.4782L211.872 46.0477L198.883 57.5205L185.263 53.8711L207.434 34.8601Z" fill="black" fill-opacity="0.02"/>
<path d="M257.295 48.2204L248.352 23.3476L262.229 27.0661L266.927 40.7101L277.733 31.2204L291.182 34.8239L271.069 51.6348L281.122 79.5565L267.246 75.8385L261.734 59.4081L248.744 70.8809L235.124 67.2315L257.295 48.2204Z" fill="black" fill-opacity="0.02"/>
<path d="M307.157 61.5808L298.213 36.708L312.091 40.4265L316.789 54.0705L327.595 44.5807L341.043 48.1842L320.93 64.9952L330.983 92.9169L317.108 89.1989L311.595 72.7684L298.606 84.2412L284.986 80.5918L307.157 61.5808Z" fill="black" fill-opacity="0.02"/>
<path d="M357.018 74.9411L348.074 50.0683L361.952 53.7868L366.65 67.4308L377.456 57.9411L390.904 61.5446L370.792 78.3556L380.845 106.277L366.969 102.559L361.456 86.1288L348.467 97.6016L334.847 93.9522L357.018 74.9411Z" fill="black" fill-opacity="0.02"/>
<path d="M406.879 88.3015L397.936 63.4287L411.813 67.1472L416.511 80.7912L427.317 71.3014L440.766 74.9049L420.653 91.7159L430.706 119.638L416.83 115.92L411.318 99.4891L398.328 110.962L384.708 107.313L406.879 88.3015Z" fill="black" fill-opacity="0.02"/>
<path d="M456.741 101.662L447.797 76.789L461.675 80.5075L466.373 94.1515L477.179 84.6618L490.627 88.2653L470.514 105.076L480.567 132.998L466.692 129.28L461.179 112.849L448.19 124.322L434.57 120.673L456.741 101.662Z" fill="black" fill-opacity="0.02"/>
<path d="M506.602 115.022L497.658 90.1494L511.536 93.8679L516.234 107.512L527.04 98.0221L540.488 101.626L520.376 118.437L530.429 146.358L516.553 142.64L511.04 126.21L498.051 137.683L484.431 134.033L506.602 115.022Z" fill="black" fill-opacity="0.02"/>
<path d="M556.464 128.383L547.521 103.51L561.398 107.228L566.096 120.872L576.902 111.382L590.351 114.986L570.238 131.797L580.291 159.719L566.415 156.001L560.903 139.57L547.913 151.043L534.293 147.394L556.464 128.383Z" fill="black" fill-opacity="0.02"/>
<path d="M606.326 141.743L597.382 116.87L611.26 120.589L615.958 134.233L626.763 124.743L640.212 128.346L620.099 145.157L630.152 173.079L616.277 169.361L610.764 152.931L597.774 164.403L584.155 160.754L606.326 141.743Z" fill="black" fill-opacity="0.02"/>
<path d="M656.187 155.103L647.243 130.23L661.121 133.949L665.819 147.593L676.625 138.103L690.073 141.707L669.96 158.518L680.014 186.439L666.138 182.721L660.625 166.291L647.636 177.764L634.016 174.114L656.187 155.103Z" fill="black" fill-opacity="0.02"/>
<path d="M706.048 168.464L697.105 143.591L710.982 147.309L715.68 160.953L726.486 151.464L739.935 155.067L719.822 171.878L729.875 199.8L715.999 196.082L710.487 179.651L697.497 191.124L683.877 187.475L706.048 168.464Z" fill="black" fill-opacity="0.02"/>
<path d="M755.91 181.824L746.966 156.951L760.844 160.67L765.542 174.314L776.347 164.824L789.796 168.427L769.683 185.238L779.736 213.16L765.861 209.442L760.348 193.012L747.358 204.484L733.739 200.835L755.91 181.824Z" fill="black" fill-opacity="0.02"/>
<path d="M805.771 195.184L796.827 170.311L810.705 174.03L815.403 187.674L826.209 178.184L839.657 181.787L819.544 198.598L829.598 226.52L815.722 222.802L810.209 206.371L797.22 217.844L783.6 214.195L805.771 195.184Z" fill="black" fill-opacity="0.02"/>
<path d="M855.632 208.544L846.689 183.671L860.566 187.39L865.264 201.034L876.07 191.544L889.519 195.148L869.406 211.959L879.459 239.88L865.583 236.162L860.071 219.732L847.081 231.205L833.461 227.555L855.632 208.544Z" fill="black" fill-opacity="0.02"/>
<path d="M905.494 221.904L896.55 197.032L910.428 200.75L915.126 214.394L925.931 204.904L939.38 208.508L919.267 225.319L929.32 253.241L915.445 249.523L909.932 233.092L896.942 244.565L883.323 240.916L905.494 221.904Z" fill="black" fill-opacity="0.02"/>
<path d="M955.355 235.265L946.411 210.392L960.289 214.111L964.987 227.755L975.793 218.265L989.241 221.868L969.128 238.679L979.182 266.601L965.306 262.883L959.793 246.453L946.804 257.925L933.184 254.276L955.355 235.265Z" fill="black" fill-opacity="0.02"/>
<path d="M1005.22 248.625L996.274 223.752L1010.15 227.471L1014.85 241.115L1025.66 231.625L1039.1 235.229L1018.99 252.04L1029.04 279.961L1015.17 276.243L1009.66 259.813L996.666 271.286L983.046 267.636L1005.22 248.625Z" fill="black" fill-opacity="0.02"/>
<path d="M1055.08 261.986L1046.13 237.113L1060.01 240.831L1064.71 254.475L1075.52 244.986L1088.96 248.589L1068.85 265.4L1078.91 293.322L1065.03 289.604L1059.52 273.173L1046.53 284.646L1032.91 280.997L1055.08 261.986Z" fill="black" fill-opacity="0.02"/>
<path d="M1104.94 275.346L1096 250.473L1109.87 254.192L1114.57 267.836L1125.38 258.346L1138.83 261.949L1118.71 278.76L1128.77 306.682L1114.89 302.964L1109.38 286.534L1096.39 298.006L1082.77 294.357L1104.94 275.346Z" fill="black" fill-opacity="0.02"/>
<path d="M1154.8 288.706L1145.86 263.833L1159.73 267.552L1164.43 281.196L1175.24 271.706L1188.69 275.31L1168.57 292.121L1178.63 320.042L1164.75 316.324L1159.24 299.894L1146.25 311.367L1132.63 307.717L1154.8 288.706Z" fill="black" fill-opacity="0.02"/>
<path d="M1204.66 302.067L1195.72 277.194L1209.6 280.912L1214.3 294.556L1225.1 285.067L1238.55 288.67L1218.44 305.481L1228.49 333.403L1214.61 329.685L1209.1 313.254L1196.11 324.727L1182.49 321.078L1204.66 302.067Z" fill="black" fill-opacity="0.02"/>
<path d="M1254.52 315.427L1245.58 290.554L1259.46 294.273L1264.16 307.917L1274.96 298.427L1288.41 302.03L1268.3 318.841L1278.35 346.763L1264.48 343.045L1258.96 326.615L1245.97 338.087L1232.35 334.438L1254.52 315.427Z" fill="black" fill-opacity="0.02"/>
<path d="M811.815 -26.8162L802.871 -51.689L816.749 -47.9705L821.447 -34.3265L832.253 -43.8162L845.701 -40.2127L825.588 -23.4018L835.642 4.51989L821.766 0.801901L816.253 -15.6285L803.264 -4.15576L789.644 -7.80517L811.815 -26.8162Z" fill="black" fill-opacity="0.02"/>
<path d="M861.676 -13.4563L852.733 -38.3291L866.61 -34.6106L871.308 -20.9666L882.114 -30.4564L895.563 -26.8529L875.45 -10.0419L885.503 17.8798L871.627 14.1618L866.115 -2.26867L853.125 9.2041L839.505 5.5547L861.676 -13.4563Z" fill="black" fill-opacity="0.02"/>
<path d="M911.538 -0.0959894L902.594 -24.9688L916.472 -21.2503L921.17 -7.60628L931.975 -17.096L945.424 -13.4925L925.311 3.31844L935.364 31.2401L921.489 27.5221L915.976 11.0917L902.986 22.5645L889.367 18.915L911.538 -0.0959894Z" fill="black" fill-opacity="0.02"/>
<path d="M961.399 13.2644L952.455 -11.6084L966.333 -7.88992L971.031 5.75407L981.837 -3.73568L995.285 -0.132166L975.172 16.6788L985.226 44.6005L971.35 40.8825L965.837 24.452L952.848 35.9248L939.228 32.2754L961.399 13.2644Z" fill="black" fill-opacity="0.02"/>
<path d="M1011.26 26.6247L1002.32 1.75192L1016.19 5.47043L1020.89 19.1144L1031.7 9.62468L1045.15 13.2282L1025.03 30.0391L1035.09 57.9608L1021.21 54.2428L1015.7 37.8124L1002.71 49.2852L989.089 45.6358L1011.26 26.6247Z" fill="black" fill-opacity="0.02"/>
<path d="M1061.12 39.9851L1052.18 15.1123L1066.06 18.8308L1070.75 32.4748L1081.56 22.985L1095.01 26.5885L1074.9 43.3995L1084.95 71.3212L1071.07 67.6032L1065.56 51.1727L1052.57 62.6455L1038.95 58.9961L1061.12 39.9851Z" fill="black" fill-opacity="0.02"/>
<path d="M1110.98 53.3454L1102.04 28.4726L1115.92 32.1911L1120.62 45.8351L1131.42 36.3454L1144.87 39.9489L1124.76 56.7598L1134.81 84.6815L1120.93 80.9635L1115.42 64.5331L1102.43 76.0059L1088.81 72.3565L1110.98 53.3454Z" fill="black" fill-opacity="0.02"/>
<path d="M1160.85 66.7058L1151.9 41.833L1165.78 45.5515L1170.48 59.1955L1181.28 49.7057L1194.73 53.3092L1174.62 70.1202L1184.67 98.0419L1170.8 94.3239L1165.28 77.8934L1152.29 89.3662L1138.67 85.7168L1160.85 66.7058Z" fill="black" fill-opacity="0.02"/>
<path d="M1210.71 80.0661L1201.76 55.1933L1215.64 58.9118L1220.34 72.5558L1231.14 63.0661L1244.59 66.6696L1224.48 83.4806L1234.53 111.402L1220.66 107.684L1215.14 91.2538L1202.16 102.727L1188.54 99.0772L1210.71 80.0661Z" fill="black" fill-opacity="0.02"/>
<path d="M1260.57 93.4265L1251.62 68.5537L1265.5 72.2722L1270.2 85.9162L1281.01 76.4264L1294.45 80.0299L1274.34 96.8409L1284.39 124.763L1270.52 121.045L1265.01 104.614L1252.02 116.087L1238.4 112.438L1260.57 93.4265Z" fill="black" fill-opacity="0.02"/>
<path d="M1310.43 106.787L1301.49 81.914L1315.36 85.6325L1320.06 99.2765L1330.87 89.7868L1344.32 93.3903L1324.2 110.201L1334.26 138.123L1320.38 134.405L1314.87 117.974L1301.88 129.447L1288.26 125.798L1310.43 106.787Z" fill="black" fill-opacity="0.02"/>
<path d="M1360.29 120.147L1351.35 95.2744L1365.22 98.9929L1369.92 112.637L1380.73 103.147L1394.18 106.751L1374.06 123.562L1384.12 151.483L1370.24 147.765L1364.73 131.335L1351.74 142.808L1338.12 139.158L1360.29 120.147Z" fill="black" fill-opacity="0.02"/>
<path d="M1410.15 133.508L1401.21 108.635L1415.09 112.353L1419.78 125.997L1430.59 116.507L1444.04 120.111L1423.93 136.922L1433.98 164.844L1420.1 161.126L1414.59 144.695L1401.6 156.168L1387.98 152.519L1410.15 133.508Z" fill="black" fill-opacity="0.02"/>
<path d="M1460.01 146.868L1451.07 121.995L1464.95 125.714L1469.65 139.358L1480.45 129.868L1493.9 133.471L1473.79 150.282L1483.84 178.204L1469.96 174.486L1464.45 158.056L1451.46 169.528L1437.84 165.879L1460.01 146.868Z" fill="black" fill-opacity="0.02"/>
<path d="M1.94383 203.419L-6.99986 178.546L6.87778 182.265L11.5758 195.909L22.3816 186.419L35.8301 190.023L15.7173 206.834L25.7706 234.755L11.8949 231.037L6.38208 214.607L-6.60737 226.08L-20.2271 222.43L1.94383 203.419Z" fill="black" fill-opacity="0.02"/>
<path d="M51.8061 216.779L42.8624 191.907L56.7401 195.625L61.4381 209.269L72.2439 199.779L85.6924 203.383L65.5796 220.194L75.6329 248.116L61.7572 244.398L56.2444 227.967L43.2549 239.44L29.6352 235.791L51.8061 216.779Z" fill="black" fill-opacity="0.02"/>
<path d="M101.667 230.14L92.7238 205.267L106.601 208.986L111.299 222.63L122.105 213.14L135.554 216.743L115.441 233.554L125.494 261.476L111.619 257.758L106.106 241.328L93.1163 252.8L79.4965 249.151L101.667 230.14Z" fill="black" fill-opacity="0.02"/>
<path d="M151.529 243.5L142.585 218.627L156.463 222.346L161.161 235.99L171.967 226.5L185.415 230.104L165.302 246.915L175.356 274.836L161.48 271.118L155.967 254.688L142.978 266.161L129.358 262.511L151.529 243.5Z" fill="black" fill-opacity="0.02"/>
<path d="M201.39 256.861L192.446 231.988L206.324 235.706L211.022 249.35L221.828 239.861L235.276 243.464L215.164 260.275L225.217 288.197L211.341 284.479L205.828 268.048L192.839 279.521L179.219 275.872L201.39 256.861Z" fill="black" fill-opacity="0.02"/>
<path d="M251.251 270.221L242.308 245.348L256.185 249.067L260.883 262.711L271.689 253.221L285.138 256.824L265.025 273.635L275.078 301.557L261.202 297.839L255.69 281.409L242.7 292.881L229.08 289.232L251.251 270.221Z" fill="black" fill-opacity="0.02"/>
<path d="M301.113 283.581L292.169 258.708L306.047 262.427L310.745 276.071L321.551 266.581L334.999 270.185L314.886 286.996L324.94 314.917L311.064 311.199L305.551 294.769L292.562 306.242L278.942 302.592L301.113 283.581Z" fill="black" fill-opacity="0.02"/>
<path d="M350.974 296.942L342.03 272.069L355.908 275.787L360.606 289.431L371.412 279.942L384.86 283.545L364.748 300.356L374.801 328.278L360.925 324.56L355.412 308.129L342.423 319.602L328.803 315.953L350.974 296.942Z" fill="black" fill-opacity="0.02"/>
<path d="M400.835 310.302L391.892 285.429L405.769 289.148L410.467 302.792L421.273 293.302L434.722 296.905L414.609 313.716L424.662 341.638L410.786 337.92L405.274 321.49L392.284 332.962L378.664 329.313L400.835 310.302Z" fill="black" fill-opacity="0.02"/>
<path d="M450.697 323.662L441.753 298.79L455.631 302.508L460.329 316.152L471.135 306.662L484.583 310.266L464.47 327.077L474.524 354.998L460.648 351.28L455.135 334.85L442.146 346.323L428.526 342.673L450.697 323.662Z" fill="black" fill-opacity="0.02"/>
<path d="M1452.08 -22.9725L1443.14 -47.8452L1457.01 -44.1267L1461.71 -30.4827L1472.52 -39.9725L1485.97 -36.369L1465.85 -19.558L1475.91 8.36364L1462.03 4.64565L1456.52 -11.7848L1443.53 -0.312011L1429.91 -3.96142L1452.08 -22.9725Z" fill="black" fill-opacity="0.02"/>
<path d="M-5.98879 33.5788L-14.9325 8.70603L-1.05483 12.4245L3.64314 26.0685L14.449 16.5788L27.8975 20.1823L7.78469 36.9932L17.838 64.9149L3.96226 61.1969L-1.55054 44.7665L-14.54 56.2393L-28.1598 52.5899L-5.98879 33.5788Z" fill="black" fill-opacity="0.02"/>
<path d="M43.8725 46.9392L34.9288 22.0664L48.8065 25.7849L53.5045 39.4289L64.3104 29.9391L77.7588 33.5426L57.646 50.3536L67.6993 78.2753L53.8236 74.5573L48.3108 58.1268L35.3213 69.5996L21.7016 65.9502L43.8725 46.9392Z" fill="black" fill-opacity="0.02"/>
<path d="M93.7348 60.2995L84.7912 35.4267L98.6688 39.1452L103.367 52.7892L114.173 43.2995L127.621 46.903L107.508 63.7139L117.562 91.6356L103.686 87.9176L98.1731 71.4872L85.1836 82.96L71.5639 79.3106L93.7348 60.2995Z" fill="black" fill-opacity="0.02"/>
<path d="M143.596 73.6599L134.652 48.7871L148.53 52.5056L153.228 66.1496L164.034 56.6598L177.482 60.2633L157.37 77.0743L167.423 104.996L153.547 101.278L148.034 84.8475L135.045 96.3203L121.425 92.6709L143.596 73.6599Z" fill="black" fill-opacity="0.02"/>
<path d="M193.457 87.0202L184.514 62.1474L198.391 65.8659L203.089 79.5099L213.895 70.0202L227.344 73.6237L207.231 90.4347L217.284 118.356L203.409 114.638L197.896 98.2079L184.906 109.681L171.287 106.031L193.457 87.0202Z" fill="black" fill-opacity="0.02"/>
<path d="M243.319 100.381L234.375 75.5078L248.253 79.2263L252.951 92.8703L263.757 83.3805L277.205 86.984L257.092 103.795L267.146 131.717L253.27 127.999L247.757 111.568L234.768 123.041L221.148 119.392L243.319 100.381Z" fill="black" fill-opacity="0.02"/>
<path d="M293.18 113.741L284.236 88.8681L298.114 92.5866L302.812 106.231L313.618 96.7409L327.066 100.344L306.954 117.155L317.007 145.077L303.131 141.359L297.618 124.929L284.629 136.401L271.009 132.752L293.18 113.741Z" fill="black" fill-opacity="0.02"/>
<path d="M343.041 127.101L334.098 102.228L347.975 105.947L352.673 119.591L363.479 110.101L376.928 113.705L356.815 130.516L366.868 158.437L352.993 154.719L347.48 138.289L334.49 149.762L320.871 146.112L343.041 127.101Z" fill="black" fill-opacity="0.02"/>
<path d="M392.903 140.462L383.959 115.589L397.837 119.307L402.535 132.951L413.341 123.462L426.789 127.065L406.676 143.876L416.73 171.798L402.854 168.08L397.341 151.649L384.352 163.122L370.732 159.473L392.903 140.462Z" fill="black" fill-opacity="0.02"/>
<path d="M442.764 153.822L433.82 128.949L447.698 132.668L452.396 146.312L463.202 136.822L476.65 140.425L456.538 157.236L466.591 185.158L452.715 181.44L447.202 165.01L434.213 176.482L420.593 172.833L442.764 153.822Z" fill="black" fill-opacity="0.02"/>
<path d="M492.625 167.182L483.682 142.31L497.559 146.028L502.257 159.672L513.063 150.182L526.512 153.786L506.399 170.597L516.452 198.518L502.577 194.8L497.064 178.37L484.074 189.843L470.455 186.193L492.625 167.182Z" fill="black" fill-opacity="0.02"/>
<path d="M542.488 180.543L533.544 155.67L547.422 159.388L552.12 173.032L562.926 163.543L576.374 167.146L556.261 183.957L566.315 211.879L552.439 208.161L546.926 191.73L533.937 203.203L520.317 199.554L542.488 180.543Z" fill="black" fill-opacity="0.02"/>
<path d="M592.349 193.903L583.405 169.03L597.283 172.749L601.981 186.393L612.787 176.903L626.235 180.507L606.123 197.317L616.176 225.239L602.3 221.521L596.787 205.091L583.798 216.563L570.178 212.914L592.349 193.903Z" fill="black" fill-opacity="0.02"/>
<path d="M642.21 207.263L633.267 182.391L647.144 186.109L651.842 199.753L662.648 190.263L676.097 193.867L655.984 210.678L666.037 238.599L652.161 234.881L646.649 218.451L633.659 229.924L620.039 226.274L642.21 207.263Z" fill="black" fill-opacity="0.02"/>
<path d="M692.072 220.624L683.128 195.751L697.006 199.469L701.704 213.113L712.51 203.624L725.958 207.227L705.845 224.038L715.899 251.96L702.023 248.242L696.51 231.811L683.521 243.284L669.901 239.635L692.072 220.624Z" fill="black" fill-opacity="0.02"/>
<path d="M741.933 233.984L732.989 209.111L746.867 212.83L751.565 226.474L762.371 216.984L775.819 220.588L755.707 237.399L765.76 265.32L751.884 261.602L746.371 245.172L733.382 256.645L719.762 252.995L741.933 233.984Z" fill="black" fill-opacity="0.02"/>
<path d="M791.794 247.344L782.851 222.471L796.728 226.19L801.426 239.834L812.232 230.344L825.681 233.947L805.568 250.758L815.621 278.68L801.745 274.962L796.233 258.532L783.243 270.004L769.623 266.355L791.794 247.344Z" fill="black" fill-opacity="0.02"/>
<path d="M841.656 260.704L832.712 235.832L846.59 239.55L851.288 253.194L862.094 243.704L875.542 247.308L855.429 264.119L865.483 292.04L851.607 288.322L846.094 271.892L833.105 283.365L819.485 279.715L841.656 260.704Z" fill="black" fill-opacity="0.02"/>
<path d="M891.517 274.065L882.573 249.192L896.451 252.91L901.149 266.554L911.955 257.065L925.403 260.668L905.291 277.479L915.344 305.401L901.468 301.683L895.955 285.252L882.966 296.725L869.346 293.076L891.517 274.065Z" fill="black" fill-opacity="0.02"/>
<path d="M941.378 287.425L932.435 262.552L946.312 266.271L951.01 279.915L961.816 270.425L975.265 274.028L955.152 290.839L965.205 318.761L951.329 315.043L945.817 298.613L932.827 310.085L919.207 306.436L941.378 287.425Z" fill="black" fill-opacity="0.02"/>
<path d="M991.241 300.785L982.297 275.913L996.175 279.631L1000.87 293.275L1011.68 283.785L1025.13 287.389L1005.01 304.2L1015.07 332.121L1001.19 328.403L995.679 311.973L982.69 323.446L969.07 319.796L991.241 300.785Z" fill="black" fill-opacity="0.02"/>
<path d="M1041.1 314.146L1032.16 289.273L1046.04 292.991L1050.73 306.635L1061.54 297.146L1074.99 300.749L1054.88 317.56L1064.93 345.482L1051.05 341.764L1045.54 325.333L1032.55 336.806L1018.93 333.157L1041.1 314.146Z" fill="black" fill-opacity="0.02"/>
<path d="M1090.96 327.506L1082.02 302.633L1095.9 306.352L1100.6 319.996L1111.4 310.506L1124.85 314.11L1104.74 330.92L1114.79 358.842L1100.91 355.124L1095.4 338.694L1082.41 350.167L1068.79 346.517L1090.96 327.506Z" fill="black" fill-opacity="0.02"/>
<path d="M598.393 -28.0975L589.449 -52.9702L603.327 -49.2517L608.025 -35.6077L618.831 -45.0975L632.279 -41.494L612.167 -24.683L622.22 3.23864L608.344 -0.479349L602.831 -16.9098L589.842 -5.43701L576.222 -9.08642L598.393 -28.0975Z" fill="black" fill-opacity="0.02"/>
<path d="M648.254 -14.7371L639.311 -39.6099L653.188 -35.8914L657.886 -22.2474L668.692 -31.7371L682.141 -28.1336L662.028 -11.3227L672.081 16.599L658.205 12.881L652.693 -3.54944L639.703 7.92334L626.083 4.27394L648.254 -14.7371Z" fill="black" fill-opacity="0.02"/>
<path d="M698.116 -1.37675L689.172 -26.2495L703.05 -22.531L707.748 -8.88704L718.554 -18.3768L732.002 -14.7733L711.889 2.03768L721.942 29.9593L708.067 26.2414L702.554 9.81092L689.565 21.2837L675.945 17.6343L698.116 -1.37675Z" fill="black" fill-opacity="0.02"/>
<path d="M747.977 11.9836L739.033 -12.8892L752.911 -9.17068L757.609 4.47331L768.415 -5.01644L781.863 -1.41293L761.751 15.398L771.804 43.3197L757.928 39.6017L752.415 23.1713L739.426 34.644L725.806 30.9946L747.977 11.9836Z" fill="black" fill-opacity="0.02"/>
<path d="M797.838 25.344L788.895 0.471162L802.772 4.18967L807.47 17.8337L818.276 8.34391L831.725 11.9474L811.612 28.7584L821.665 56.68L807.789 52.9621L802.277 36.5316L789.287 48.0044L775.667 44.355L797.838 25.344Z" fill="black" fill-opacity="0.02"/>
<path d="M847.7 38.7038L838.756 13.831L852.634 17.5495L857.332 31.1935L868.138 21.7038L881.586 25.3073L861.473 42.1182L871.526 70.0399L857.651 66.3219L852.138 49.8915L839.148 61.3643L825.529 57.7149L847.7 38.7038Z" fill="black" fill-opacity="0.02"/>
<path d="M897.561 52.0642L888.617 27.1914L902.495 30.9099L907.193 44.5539L917.999 35.0641L931.447 38.6676L911.334 55.4786L921.388 83.4003L907.512 79.6823L901.999 63.2518L889.01 74.7246L875.39 71.0752L897.561 52.0642Z" fill="black" fill-opacity="0.02"/>
<path d="M947.422 65.4245L938.479 40.5517L952.356 44.2702L957.054 57.9142L967.86 48.4245L981.309 52.028L961.196 68.8389L971.249 96.7606L957.373 93.0426L951.861 76.6122L938.871 88.085L925.251 84.4356L947.422 65.4245Z" fill="black" fill-opacity="0.02"/>
<path d="M997.284 78.7849L988.34 53.9121L1002.22 57.6306L1006.92 71.2746L1017.72 61.7848L1031.17 65.3883L1011.06 82.1993L1021.11 110.121L1007.23 106.403L1001.72 89.9725L988.732 101.445L975.113 97.7959L997.284 78.7849Z" fill="black" fill-opacity="0.02"/>
<path d="M1047.15 92.1452L1038.2 67.2724L1052.08 70.9909L1056.78 84.6349L1067.58 75.1452L1081.03 78.7487L1060.92 95.5597L1070.97 123.481L1057.1 119.763L1051.58 103.333L1038.59 114.806L1024.98 111.156L1047.15 92.1452Z" fill="black" fill-opacity="0.02"/>
<path d="M1097.01 105.506L1088.06 80.6328L1101.94 84.3513L1106.64 97.9953L1117.45 88.5055L1130.89 92.109L1110.78 108.92L1120.83 136.842L1106.96 133.124L1101.45 116.693L1088.46 128.166L1074.84 124.517L1097.01 105.506Z" fill="black" fill-opacity="0.02"/>
<path d="M1146.87 118.866L1137.92 93.9931L1151.8 97.7116L1156.5 111.356L1167.31 101.866L1180.75 105.469L1160.64 122.28L1170.7 150.202L1156.82 146.484L1151.31 130.054L1138.32 141.526L1124.7 137.877L1146.87 118.866Z" fill="black" fill-opacity="0.02"/>
<path d="M1196.73 132.226L1187.79 107.353L1201.66 111.072L1206.36 124.716L1217.17 115.226L1230.62 118.83L1210.5 135.641L1220.56 163.562L1206.68 159.844L1201.17 143.414L1188.18 154.887L1174.56 151.237L1196.73 132.226Z" fill="black" fill-opacity="0.02"/>
<path d="M1246.59 145.587L1237.65 120.714L1251.53 124.432L1256.22 138.076L1267.03 128.587L1280.48 132.19L1260.36 149.001L1270.42 176.923L1256.54 173.205L1251.03 156.774L1238.04 168.247L1224.42 164.598L1246.59 145.587Z" fill="black" fill-opacity="0.02"/>
<path d="M1296.45 158.947L1287.51 134.074L1301.39 137.793L1306.08 151.437L1316.89 141.947L1330.34 145.55L1310.23 162.361L1320.28 190.283L1306.4 186.565L1300.89 170.135L1287.9 181.607L1274.28 177.958L1296.45 158.947Z" fill="black" fill-opacity="0.02"/>
<path d="M1346.31 172.307L1337.37 147.435L1351.25 151.153L1355.95 164.797L1366.75 155.307L1380.2 158.911L1360.09 175.722L1370.14 203.643L1356.26 199.925L1350.75 183.495L1337.76 194.968L1324.14 191.318L1346.31 172.307Z" fill="black" fill-opacity="0.02"/>
<path d="M1396.18 185.668L1387.23 160.795L1401.11 164.513L1405.81 178.157L1416.61 168.668L1430.06 172.271L1409.95 189.082L1420 217.004L1406.13 213.286L1400.61 196.855L1387.62 208.328L1374 204.679L1396.18 185.668Z" fill="black" fill-opacity="0.02"/>
<path d="M1446.04 199.028L1437.09 174.155L1450.97 177.874L1455.67 191.518L1466.47 182.028L1479.92 185.632L1459.81 202.442L1469.86 230.364L1455.99 226.646L1450.47 210.216L1437.49 221.688L1423.87 218.039L1446.04 199.028Z" fill="black" fill-opacity="0.02"/>
<path d="M-12.0318 255.579L-20.9754 230.706L-7.0978 234.425L-2.39983 248.069L8.40606 238.579L21.8545 242.182L1.74172 258.993L11.795 286.915L-2.08071 283.197L-7.59351 266.766L-20.583 278.239L-34.2027 274.59L-12.0318 255.579Z" fill="black" fill-opacity="0.02"/>
<path d="M37.8305 268.939L28.8869 244.066L42.7645 247.785L47.4625 261.429L58.2684 251.939L71.7168 255.543L51.604 272.354L61.6573 300.275L47.7816 296.557L42.2688 280.127L29.2794 291.6L15.6596 287.95L37.8305 268.939Z" fill="black" fill-opacity="0.02"/>
<path d="M87.6919 282.3L78.7482 257.427L92.6258 261.145L97.3238 274.789L108.13 265.299L121.578 268.903L101.465 285.714L111.519 313.636L97.6429 309.918L92.1301 293.487L79.1407 304.96L65.5209 301.311L87.6919 282.3Z" fill="black" fill-opacity="0.02"/>
<path d="M137.553 295.66L128.61 270.787L142.487 274.506L147.185 288.15L157.991 278.66L171.44 282.263L151.327 299.074L161.38 326.996L147.504 323.278L141.991 306.848L129.002 318.32L115.382 314.671L137.553 295.66Z" fill="black" fill-opacity="0.02"/>
<path d="M187.415 309.02L178.471 284.147L192.348 287.866L197.046 301.51L207.852 292.02L221.301 295.624L201.188 312.435L211.241 340.356L197.366 336.638L191.853 320.208L178.863 331.681L165.244 328.031L187.415 309.02Z" fill="black" fill-opacity="0.02"/>
<path d="M237.276 322.381L228.332 297.508L242.21 301.226L246.908 314.87L257.714 305.381L271.162 308.984L251.049 325.795L261.103 353.717L247.227 349.999L241.714 333.568L228.725 345.041L215.105 341.392L237.276 322.381Z" fill="black" fill-opacity="0.02"/>
<path d="M1238.66 -24.2537L1229.71 -49.1265L1243.59 -45.408L1248.29 -31.764L1259.1 -41.2537L1272.54 -37.6502L1252.43 -20.8393L1262.48 7.08239L1248.61 3.3644L1243.1 -13.066L1230.11 -1.59326L1216.49 -5.24267L1238.66 -24.2537Z" fill="black" fill-opacity="0.02"/>
<path d="M1288.52 -10.8934L1279.58 -35.7661L1293.45 -32.0476L1298.15 -18.4036L1308.96 -27.8934L1322.41 -24.2899L1302.29 -7.47892L1312.35 20.4427L1298.47 16.7248L1292.96 0.294315L1279.97 11.7671L1266.35 8.11769L1288.52 -10.8934Z" fill="black" fill-opacity="0.02"/>
<path d="M1338.38 2.467L1329.44 -22.4058L1343.32 -18.6873L1348.01 -5.04329L1358.82 -14.533L1372.27 -10.9295L1352.16 5.88143L1362.21 33.8031L1348.33 30.0851L1342.82 13.6547L1329.83 25.1274L1316.21 21.478L1338.38 2.467Z" fill="black" fill-opacity="0.02"/>
<path d="M1388.24 15.8274L1379.3 -9.04544L1393.18 -5.32693L1397.88 8.31706L1408.68 -1.17269L1422.13 2.43082L1402.02 19.2418L1412.07 47.1634L1398.19 43.4455L1392.68 27.015L1379.69 38.4878L1366.07 34.8384L1388.24 15.8274Z" fill="black" fill-opacity="0.02"/>
<path d="M1438.1 29.1877L1429.16 4.31491L1443.04 8.03342L1447.74 21.6774L1458.54 12.1877L1471.99 15.7912L1451.88 32.6021L1461.93 60.5238L1448.06 56.8058L1442.54 40.3754L1429.55 51.8481L1415.93 48.1987L1438.1 29.1877Z" fill="black" fill-opacity="0.02"/>
<path d="M-19.9644 85.7385L-28.9081 60.8657L-15.0304 64.5842L-10.3324 78.2282L0.473441 68.7384L13.9219 72.342L-6.1909 89.1529L3.8624 117.075L-10.0133 113.357L-15.5261 96.9262L-28.5156 108.399L-42.1353 104.75L-19.9644 85.7385Z" fill="black" fill-opacity="0.02"/>
<path d="M29.897 99.0988L20.9533 74.226L34.8309 77.9445L39.5289 91.5885L50.3348 82.0988L63.7833 85.7023L43.6704 102.513L53.7237 130.435L39.848 126.717L34.3352 110.287L21.3458 121.759L7.72599 118.11L29.897 99.0988Z" fill="black" fill-opacity="0.02"/>
<path d="M79.7593 112.459L70.8156 87.5864L84.6932 91.3049L89.3912 104.949L100.197 95.4591L113.646 99.0627L93.5327 115.874L103.586 143.795L89.7103 140.077L84.1975 123.647L71.2081 135.12L57.5883 131.47L79.7593 112.459Z" fill="black" fill-opacity="0.02"/>
<path d="M129.621 125.82L120.677 100.947L134.555 104.665L139.253 118.309L150.058 108.819L163.507 112.423L143.394 129.234L153.447 157.156L139.572 153.438L134.059 137.007L121.069 148.48L107.45 144.831L129.621 125.82Z" fill="black" fill-opacity="0.02"/>
<path d="M179.482 139.18L170.538 114.307L184.416 118.026L189.114 131.67L199.92 122.18L213.368 125.783L193.255 142.594L203.309 170.516L189.433 166.798L183.92 150.368L170.931 161.84L157.311 158.191L179.482 139.18Z" fill="black" fill-opacity="0.02"/>
<path d="M229.343 152.54L220.4 127.667L234.277 131.386L238.975 145.03L249.781 135.54L263.23 139.144L243.117 155.955L253.17 183.876L239.294 180.158L233.781 163.728L220.792 175.201L207.172 171.551L229.343 152.54Z" fill="black" fill-opacity="0.02"/>
<path d="M279.205 165.901L270.261 141.028L284.139 144.746L288.836 158.39L299.642 148.901L313.091 152.504L292.978 169.315L303.031 197.237L289.156 193.519L283.643 177.088L270.653 188.561L257.034 184.912L279.205 165.901Z" fill="black" fill-opacity="0.02"/>
<path d="M329.066 179.261L320.122 154.388L334 158.107L338.698 171.751L349.504 162.261L362.952 165.864L342.839 182.675L352.893 210.597L339.017 206.879L333.504 190.449L320.515 201.921L306.895 198.272L329.066 179.261Z" fill="black" fill-opacity="0.02"/>
<path d="M378.927 192.621L369.984 167.749L383.861 171.467L388.559 185.111L399.365 175.621L412.814 179.225L392.701 196.036L402.754 223.957L388.878 220.239L383.365 203.809L370.376 215.282L356.756 211.632L378.927 192.621Z" fill="black" fill-opacity="0.02"/>
<path d="M428.789 205.982L419.845 181.109L433.723 184.827L438.42 198.471L449.226 188.982L462.675 192.585L442.562 209.396L452.615 237.318L438.74 233.6L433.227 217.169L420.237 228.642L406.618 224.993L428.789 205.982Z" fill="black" fill-opacity="0.02"/>
<path d="M478.65 219.342L469.706 194.469L483.584 198.188L488.282 211.832L499.088 202.342L512.536 205.945L492.423 222.756L502.477 250.678L488.601 246.96L483.088 230.53L470.099 242.002L456.479 238.353L478.65 219.342Z" fill="black" fill-opacity="0.02"/>
<path d="M528.512 232.702L519.568 207.83L533.446 211.548L538.144 225.192L548.95 215.702L562.398 219.306L542.286 236.117L552.339 264.038L538.463 260.32L532.95 243.89L519.961 255.363L506.341 251.713L528.512 232.702Z" fill="black" fill-opacity="0.02"/>
<path d="M578.374 246.063L569.43 221.19L583.307 224.908L588.005 238.552L598.811 229.063L612.26 232.666L592.147 249.477L602.2 277.399L588.325 273.681L582.812 257.25L569.822 268.723L556.203 265.074L578.374 246.063Z" fill="black" fill-opacity="0.02"/>
<path d="M628.235 259.423L619.291 234.55L633.169 238.269L637.867 251.913L648.673 242.423L662.121 246.027L642.008 262.837L652.062 290.759L638.186 287.041L632.673 270.611L619.684 282.083L606.064 278.434L628.235 259.423Z" fill="black" fill-opacity="0.02"/>
<path d="M678.096 272.783L669.152 247.911L683.03 251.629L687.728 265.273L698.534 255.783L711.982 259.387L691.87 276.198L701.923 304.119L688.047 300.402L682.534 283.971L669.545 295.444L655.925 291.794L678.096 272.783Z" fill="black" fill-opacity="0.02"/>
<path d="M727.957 286.144L719.014 261.271L732.891 264.989L737.589 278.633L748.395 269.144L761.844 272.747L741.731 289.558L751.784 317.48L737.909 313.762L732.396 297.331L719.406 308.804L705.787 305.155L727.957 286.144Z" fill="black" fill-opacity="0.02"/>
<path d="M777.819 299.504L768.875 274.631L782.753 278.349L787.451 291.993L798.257 282.504L811.705 286.107L791.592 302.918L801.646 330.84L787.77 327.122L782.257 310.691L769.268 322.164L755.648 318.515L777.819 299.504Z" fill="black" fill-opacity="0.02"/>
<path d="M827.68 312.864L818.736 287.991L832.614 291.71L837.312 305.354L848.118 295.864L861.566 299.467L841.454 316.278L851.507 344.2L837.631 340.482L832.118 324.052L819.129 335.524L805.509 331.875L827.68 312.864Z" fill="black" fill-opacity="0.02"/>
<path d="M877.541 326.224L868.598 301.352L882.475 305.07L887.173 318.714L897.979 309.224L911.428 312.828L891.315 329.639L901.368 357.56L887.493 353.842L881.98 337.412L868.99 348.885L855.371 345.235L877.541 326.224Z" fill="black" fill-opacity="0.02"/>
<path d="M384.97 -29.3787L376.027 -54.2515L389.904 -50.533L394.602 -36.889L405.408 -46.3787L418.856 -42.7752L398.744 -25.9643L408.797 1.95739L394.921 -1.7606L389.408 -18.191L376.419 -6.71826L362.799 -10.3677L384.97 -29.3787Z" fill="black" fill-opacity="0.02"/>
<path d="M434.832 -16.0184L425.888 -40.8911L439.765 -37.1726L444.463 -23.5286L455.269 -33.0184L468.718 -29.4149L448.605 -12.6039L458.658 15.3177L444.783 11.5998L439.27 -4.83069L426.28 6.64209L412.661 2.99269L434.832 -16.0184Z" fill="black" fill-opacity="0.02"/>
<path d="M484.693 -2.658L475.749 -27.5308L489.627 -23.8123L494.325 -10.1683L505.131 -19.658L518.579 -16.0545L498.466 0.75643L508.52 28.6781L494.644 24.9601L489.131 8.52967L476.142 20.0024L462.522 16.353L484.693 -2.658Z" fill="black" fill-opacity="0.02"/>
<path d="M534.554 10.7024L525.61 -14.1704L539.488 -10.4519L544.186 3.19206L554.992 -6.29769L568.44 -2.69418L548.328 14.1168L558.381 42.0384L544.505 38.3205L538.992 21.89L526.003 33.3628L512.383 29.7134L534.554 10.7024Z" fill="black" fill-opacity="0.02"/>
<path d="M584.416 24.0627L575.473 -0.810088L589.35 2.90842L594.048 16.5524L604.854 7.06266L618.303 10.6662L598.19 27.4771L608.243 55.3988L594.368 51.6808L588.855 35.2504L575.865 46.7231L562.246 43.0737L584.416 24.0627Z" fill="black" fill-opacity="0.02"/>
<path d="M634.278 37.4231L625.334 12.5503L639.212 16.2688L643.91 29.9128L654.716 20.423L668.164 24.0265L648.051 40.8375L658.105 68.7591L644.229 65.0412L638.716 48.6107L625.727 60.0835L612.107 56.4341L634.278 37.4231Z" fill="black" fill-opacity="0.02"/>
<path d="M684.139 50.7834L675.195 25.9106L689.073 29.6291L693.771 43.2731L704.577 33.7834L718.025 37.3869L697.913 54.1978L707.966 82.1195L694.09 78.4015L688.577 61.9711L675.588 73.4438L661.968 69.7944L684.139 50.7834Z" fill="black" fill-opacity="0.02"/>
<path d="M734 64.1438L725.057 39.271L738.934 42.9895L743.632 56.6335L754.438 47.1437L767.887 50.7472L747.774 67.5582L757.827 95.4799L743.952 91.7619L738.439 75.3314L725.449 86.8042L711.83 83.1548L734 64.1438Z" fill="black" fill-opacity="0.02"/>
<path d="M783.862 77.5041L774.918 52.6313L788.796 56.3498L793.494 69.9938L804.3 60.5041L817.748 64.1076L797.635 80.9185L807.689 108.84L793.813 105.122L788.3 88.6918L775.311 100.165L761.691 96.5151L783.862 77.5041Z" fill="black" fill-opacity="0.02"/>
<path d="M833.723 90.864L824.779 65.9912L838.657 69.7097L843.355 83.3537L854.161 73.8639L867.609 77.4674L847.497 94.2784L857.55 122.2L843.674 118.482L838.161 102.052L825.172 113.524L811.552 109.875L833.723 90.864Z" fill="black" fill-opacity="0.02"/>
<path d="M883.584 104.224L874.641 79.3515L888.518 83.07L893.216 96.714L904.022 87.2243L917.471 90.8278L897.358 107.639L907.411 135.56L893.536 131.842L888.023 115.412L875.033 126.885L861.413 123.235L883.584 104.224Z" fill="black" fill-opacity="0.02"/>
<path d="M933.446 117.585L924.502 92.7119L938.38 96.4304L943.078 110.074L953.884 100.585L967.332 104.188L947.219 120.999L957.273 148.921L943.397 145.203L937.884 128.772L924.895 140.245L911.275 136.596L933.446 117.585Z" fill="black" fill-opacity="0.02"/>
<path d="M983.307 130.945L974.363 106.072L988.241 109.791L992.939 123.435L1003.74 113.945L1017.19 117.548L997.081 134.359L1007.13 162.281L993.258 158.563L987.745 142.133L974.756 153.605L961.136 149.956L983.307 130.945Z" fill="black" fill-opacity="0.02"/>
<path d="M1033.17 144.305L1024.23 119.433L1038.1 123.151L1042.8 136.795L1053.61 127.305L1067.06 130.909L1046.94 147.72L1057 175.641L1043.12 171.923L1037.61 155.493L1024.62 166.966L1011 163.316L1033.17 144.305Z" fill="black" fill-opacity="0.02"/>
<path d="M1083.03 157.666L1074.09 132.793L1087.96 136.511L1092.66 150.155L1103.47 140.666L1116.92 144.269L1096.8 161.08L1106.86 189.002L1092.98 185.284L1087.47 168.853L1074.48 180.326L1060.86 176.677L1083.03 157.666Z" fill="black" fill-opacity="0.02"/>
<path d="M1132.89 171.026L1123.95 146.153L1137.83 149.872L1142.52 163.516L1153.33 154.026L1166.78 157.63L1146.67 174.441L1156.72 202.362L1142.84 198.644L1137.33 182.214L1124.34 193.687L1110.72 190.037L1132.89 171.026Z" fill="black" fill-opacity="0.02"/>
<path d="M1182.75 184.386L1173.81 159.514L1187.69 163.232L1192.39 176.876L1203.19 167.386L1216.64 170.99L1196.53 187.801L1206.58 215.723L1192.7 212.005L1187.19 195.574L1174.2 207.047L1160.58 203.397L1182.75 184.386Z" fill="black" fill-opacity="0.02"/>
<path d="M1232.61 197.747L1223.67 172.874L1237.55 176.592L1242.25 190.236L1253.05 180.747L1266.5 184.35L1246.39 201.161L1256.44 229.083L1242.57 225.365L1237.05 208.934L1224.06 220.407L1210.44 216.758L1232.61 197.747Z" fill="black" fill-opacity="0.02"/>
<path d="M1282.48 211.107L1273.53 186.234L1287.41 189.953L1292.11 203.597L1302.91 194.107L1316.36 197.711L1296.25 214.522L1306.3 242.443L1292.43 238.725L1286.91 222.295L1273.92 233.768L1260.31 230.118L1282.48 211.107Z" fill="black" fill-opacity="0.02"/>
<path d="M1332.34 224.467L1323.39 199.595L1337.27 203.313L1341.97 216.957L1352.78 207.467L1366.22 211.071L1346.11 227.882L1356.16 255.804L1342.29 252.086L1336.78 235.655L1323.79 247.128L1310.17 243.479L1332.34 224.467Z" fill="black" fill-opacity="0.02"/>
<path d="M1382.2 237.828L1373.26 212.955L1387.13 216.674L1391.83 230.318L1402.64 220.828L1416.09 224.431L1395.97 241.242L1406.03 269.164L1392.15 265.446L1386.64 249.016L1373.65 260.488L1360.03 256.839L1382.2 237.828Z" fill="black" fill-opacity="0.02"/>
<path d="M1432.06 251.188L1423.12 226.315L1436.99 230.034L1441.69 243.678L1452.5 234.188L1465.95 237.792L1445.83 254.603L1455.89 282.524L1442.01 278.806L1436.5 262.376L1423.51 273.849L1409.89 270.199L1432.06 251.188Z" fill="black" fill-opacity="0.02"/>
<path d="M-26.0083 307.739L-34.952 282.866L-21.0744 286.585L-16.3764 300.229L-5.5705 290.739L7.87798 294.342L-12.2348 311.153L-2.18155 339.075L-16.0573 335.357L-21.5701 318.927L-34.5595 330.399L-48.1793 326.75L-26.0083 307.739Z" fill="black" fill-opacity="0.02"/>
<path d="M23.854 321.099L14.9103 296.227L28.7879 299.945L33.4859 313.589L44.2918 304.099L57.7403 307.703L37.6275 324.514L47.6808 352.435L33.805 348.717L28.2922 332.287L15.3028 343.76L1.68302 340.11L23.854 321.099Z" fill="black" fill-opacity="0.02"/>
<path d="M1025.24 -25.535L1016.29 -50.4077L1030.17 -46.6892L1034.87 -33.0452L1045.67 -42.535L1059.12 -38.9315L1039.01 -22.1205L1049.06 5.80114L1035.19 2.08315L1029.67 -14.3473L1016.68 -2.87451L1003.06 -6.52392L1025.24 -25.535Z" fill="black" fill-opacity="0.02"/>
<path d="M1075.1 -12.1746L1066.15 -37.0474L1080.03 -33.3289L1084.73 -19.6849L1095.54 -29.1746L1108.98 -25.5711L1088.87 -8.76017L1098.92 19.1615L1085.05 15.4435L1079.54 -0.986935L1066.55 10.4858L1052.93 6.83644L1075.1 -12.1746Z" fill="black" fill-opacity="0.02"/>
<path d="M1124.96 1.18575L1116.02 -23.687L1129.89 -19.9685L1134.59 -6.32454L1145.4 -15.8143L1158.85 -12.2108L1138.73 4.60018L1148.79 32.5218L1134.91 28.8039L1129.4 12.3734L1116.41 23.8462L1102.79 20.1968L1124.96 1.18575Z" fill="black" fill-opacity="0.02"/>
<path d="M1174.82 14.5461L1165.88 -10.3267L1179.75 -6.60818L1184.45 7.03581L1195.26 -2.45394L1208.71 1.14957L1188.59 17.9605L1198.65 45.8822L1184.77 42.1642L1179.26 25.7338L1166.27 37.2065L1152.65 33.5571L1174.82 14.5461Z" fill="black" fill-opacity="0.02"/>
<path d="M1224.68 27.9065L1215.74 3.03366L1229.62 6.75217L1234.31 20.3962L1245.12 10.9064L1258.57 14.5099L1238.45 31.3209L1248.51 59.2425L1234.63 55.5246L1229.12 39.0941L1216.13 50.5669L1202.51 46.9175L1224.68 27.9065Z" fill="black" fill-opacity="0.02"/>
<path d="M1274.54 41.2668L1265.6 16.394L1279.48 20.1125L1284.18 33.7565L1294.98 24.2668L1308.43 27.8703L1288.32 44.6812L1298.37 72.6029L1284.5 68.8849L1278.98 52.4545L1265.99 63.9272L1252.37 60.2778L1274.54 41.2668Z" fill="black" fill-opacity="0.02"/>
<path d="M1324.41 54.6272L1315.46 29.7544L1329.34 33.4729L1334.04 47.1169L1344.84 37.6271L1358.29 41.2306L1338.18 58.0416L1348.23 85.9632L1334.36 82.2453L1328.84 65.8148L1315.85 77.2876L1302.23 73.6382L1324.41 54.6272Z" fill="black" fill-opacity="0.02"/>
<path d="M1374.27 67.9875L1365.32 43.1147L1379.2 46.8332L1383.9 60.4772L1394.7 50.9875L1408.15 54.591L1388.04 71.4019L1398.09 99.3236L1384.22 95.6056L1378.71 79.1752L1365.72 90.6479L1352.1 86.9985L1374.27 67.9875Z" fill="black" fill-opacity="0.02"/>
<path d="M1424.13 81.3479L1415.18 56.4751L1429.06 60.1936L1433.76 73.8376L1444.57 64.3478L1458.01 67.9513L1437.9 84.7623L1447.96 112.684L1434.08 108.966L1428.57 92.5355L1415.58 104.008L1401.96 100.359L1424.13 81.3479Z" fill="black" fill-opacity="0.02"/>
<path d="M-33.9409 137.899L-42.8846 113.026L-29.007 116.744L-24.309 130.388L-13.5031 120.899L-0.0546372 124.502L-20.1675 141.313L-10.1142 169.235L-23.9899 165.517L-29.5027 149.086L-42.4921 160.559L-56.1119 156.91L-33.9409 137.899Z" fill="black" fill-opacity="0.02"/>
<path d="M15.9204 151.259L6.9767 126.386L20.8543 130.105L25.5523 143.749L36.3582 134.259L49.8067 137.862L29.6939 154.673L39.7472 182.595L25.8714 178.877L20.3586 162.447L7.36919 173.919L-6.25057 170.27L15.9204 151.259Z" fill="black" fill-opacity="0.02"/>
<path d="M65.7827 164.619L56.839 139.747L70.7167 143.465L75.4146 157.109L86.2205 147.619L99.669 151.223L79.5562 168.034L89.6095 195.955L75.7337 192.237L70.2209 175.807L57.2315 187.28L43.6117 183.63L65.7827 164.619Z" fill="black" fill-opacity="0.02"/>
<path d="M115.644 177.98L106.7 153.107L120.578 156.825L125.276 170.469L136.082 160.98L149.53 164.583L129.418 181.394L139.471 209.316L125.595 205.598L120.082 189.167L107.093 200.64L93.4731 196.991L115.644 177.98Z" fill="black" fill-opacity="0.02"/>
<path d="M165.505 191.34L156.562 166.467L170.439 170.186L175.137 183.83L185.943 174.34L199.392 177.944L179.279 194.754L189.332 222.676L175.456 218.958L169.944 202.528L156.954 214L143.334 210.351L165.505 191.34Z" fill="black" fill-opacity="0.02"/>
<path d="M215.367 204.7L206.423 179.828L220.301 183.546L224.999 197.19L235.804 187.7L249.253 191.304L229.14 208.115L239.193 236.036L225.318 232.319L219.805 215.888L206.815 227.361L193.196 223.711L215.367 204.7Z" fill="black" fill-opacity="0.02"/>
<path d="M265.228 218.061L256.284 193.188L270.162 196.906L274.86 210.55L285.666 201.061L299.114 204.664L279.001 221.475L289.055 249.397L275.179 245.679L269.666 229.248L256.677 240.721L243.057 237.072L265.228 218.061Z" fill="black" fill-opacity="0.02"/>
<path d="M315.089 231.421L306.146 206.548L320.023 210.267L324.721 223.911L335.527 214.421L348.976 218.025L328.863 234.836L338.916 262.757L325.04 259.039L319.528 242.609L306.538 254.082L292.918 250.432L315.089 231.421Z" fill="black" fill-opacity="0.02"/>
<path d="M364.951 244.781L356.007 219.909L369.885 223.627L374.583 237.271L385.388 227.781L398.837 231.385L378.724 248.196L388.777 276.118L374.902 272.4L369.389 255.969L356.399 267.442L342.78 263.792L364.951 244.781Z" fill="black" fill-opacity="0.02"/>
<path d="M414.812 258.142L405.868 233.269L419.746 236.988L424.444 250.632L435.25 241.142L448.698 244.745L428.585 261.556L438.639 289.478L424.763 285.76L419.25 269.329L406.261 280.802L392.641 277.153L414.812 258.142Z" fill="black" fill-opacity="0.02"/>
<path d="M464.673 271.502L455.73 246.629L469.607 250.348L474.305 263.992L485.111 254.502L498.56 258.106L478.447 274.917L488.5 302.838L474.624 299.12L469.112 282.69L456.122 294.163L442.502 290.513L464.673 271.502Z" fill="black" fill-opacity="0.02"/>
<path d="M514.536 284.863L505.592 259.99L519.47 263.708L524.168 277.352L534.973 267.862L548.422 271.466L528.309 288.277L538.362 316.199L524.487 312.481L518.974 296.05L505.984 307.523L492.365 303.874L514.536 284.863Z" fill="black" fill-opacity="0.02"/>
<path d="M564.397 298.223L555.453 273.35L569.331 277.069L574.029 290.713L584.835 281.223L598.283 284.826L578.17 301.637L588.224 329.559L574.348 325.841L568.835 309.411L555.846 320.883L542.226 317.234L564.397 298.223Z" fill="black" fill-opacity="0.02"/>
<path d="M614.258 311.583L605.315 286.71L619.192 290.429L623.89 304.073L634.696 294.583L648.145 298.187L628.032 314.998L638.085 342.919L624.209 339.201L618.697 322.771L605.707 334.244L592.087 330.594L614.258 311.583Z" fill="black" fill-opacity="0.02"/>
<path d="M664.12 324.944L655.176 300.071L669.054 303.789L673.752 317.433L684.557 307.944L698.006 311.547L677.893 328.358L687.946 356.28L674.071 352.562L668.558 336.131L655.568 347.604L641.949 343.955L664.12 324.944Z" fill="black" fill-opacity="0.02"/>
<path d="M171.549 -30.6604L162.606 -55.5332L176.483 -51.8147L181.181 -38.1707L191.987 -47.6605L205.436 -44.057L185.323 -27.246L195.376 0.675651L181.5 -3.04234L175.988 -19.4728L162.998 -8L149.378 -11.6494L171.549 -30.6604Z" fill="black" fill-opacity="0.02"/>
<path d="M221.411 -17.3001L212.467 -42.1729L226.345 -38.4544L231.043 -24.8104L241.848 -34.3001L255.297 -30.6966L235.184 -13.8857L245.237 14.036L231.362 10.318L225.849 -6.11242L212.859 5.36035L199.24 1.71095L221.411 -17.3001Z" fill="black" fill-opacity="0.02"/>
<path d="M271.272 -3.93974L262.328 -28.8125L276.206 -25.094L280.904 -11.45L291.71 -20.9398L305.158 -17.3363L285.045 -0.525308L295.099 27.3964L281.223 23.6784L275.71 7.24793L262.721 18.7207L249.101 15.0713L271.272 -3.93974Z" fill="black" fill-opacity="0.02"/>
<path d="M321.133 9.42061L312.19 -15.4522L326.067 -11.7337L330.765 1.91032L341.571 -7.57943L355.02 -3.97592L334.907 12.835L344.96 40.7567L331.084 37.0387L325.572 20.6083L312.582 32.0811L298.962 28.4316L321.133 9.42061Z" fill="black" fill-opacity="0.02"/>
<path d="M370.995 22.781L362.051 -2.09183L375.929 1.62668L380.627 15.2707L391.432 5.78093L404.881 9.38444L384.768 26.1954L394.821 54.1171L380.946 50.3991L375.433 33.9686L362.443 45.4414L348.824 41.792L370.995 22.781Z" fill="black" fill-opacity="0.02"/>
<path d="M420.856 36.1413L411.912 11.2685L425.79 14.987L430.488 28.631L441.294 19.1413L454.742 22.7448L434.629 39.5557L444.683 67.4774L430.807 63.7594L425.294 47.329L412.305 58.8018L398.685 55.1524L420.856 36.1413Z" fill="black" fill-opacity="0.02"/>
<path d="M470.717 49.5017L461.774 24.6289L475.651 28.3474L480.349 41.9914L491.155 32.5016L504.604 36.1051L484.491 52.9161L494.544 80.8378L480.668 77.1198L475.156 60.6893L462.166 72.1621L448.546 68.5127L470.717 49.5017Z" fill="black" fill-opacity="0.02"/>
<path d="M520.579 62.862L511.635 37.9892L525.513 41.7077L530.211 55.3517L541.016 45.862L554.465 49.4655L534.352 66.2764L544.405 94.1981L530.53 90.4801L525.017 74.0497L512.027 85.5225L498.408 81.8731L520.579 62.862Z" fill="black" fill-opacity="0.02"/>
<path d="M570.441 76.2224L561.497 51.3496L575.375 55.0681L580.073 68.7121L590.879 59.2223L604.327 62.8258L584.214 79.6368L594.268 107.558L580.392 103.84L574.879 87.41L561.89 98.8828L548.27 95.2334L570.441 76.2224Z" fill="black" fill-opacity="0.02"/>
<path d="M620.302 89.5827L611.359 64.7099L625.236 68.4284L629.934 82.0724L640.74 72.5827L654.189 76.1862L634.076 92.9972L644.129 120.919L630.253 117.201L624.74 100.77L611.751 112.243L598.131 108.594L620.302 89.5827Z" fill="black" fill-opacity="0.02"/>
<path d="M670.164 102.943L661.22 78.0703L675.098 81.7888L679.795 95.4328L690.601 85.943L704.05 89.5465L683.937 106.358L693.99 134.279L680.115 130.561L674.602 114.131L661.612 125.604L647.993 121.954L670.164 102.943Z" fill="black" fill-opacity="0.02"/>
<path d="M720.025 116.303L711.081 91.4306L724.959 95.1491L729.657 108.793L740.463 99.3034L753.911 102.907L733.798 119.718L743.852 147.64L729.976 143.922L724.463 127.491L711.474 138.964L697.854 135.314L720.025 116.303Z" fill="black" fill-opacity="0.02"/>
<path d="M769.886 129.664L760.943 104.791L774.82 108.509L779.518 122.153L790.324 112.664L803.773 116.267L783.66 133.078L793.713 161L779.837 157.282L774.324 140.851L761.335 152.324L747.715 148.675L769.886 129.664Z" fill="black" fill-opacity="0.02"/>
<path d="M819.748 143.024L810.804 118.151L824.681 121.869L829.379 135.513L840.185 126.024L853.634 129.627L833.521 146.438L843.574 174.36L829.699 170.642L824.186 154.211L811.196 165.684L797.577 162.035L819.748 143.024Z" fill="black" fill-opacity="0.02"/>
<path d="M869.609 156.384L860.665 131.511L874.543 135.23L879.241 148.874L890.047 139.384L903.495 142.987L883.382 159.798L893.436 187.72L879.56 184.002L874.047 167.572L861.058 179.044L847.438 175.395L869.609 156.384Z" fill="black" fill-opacity="0.02"/>
<path d="M919.47 169.744L910.527 144.872L924.404 148.59L929.102 162.234L939.908 152.744L953.356 156.348L933.244 173.159L943.297 201.08L929.421 197.362L923.908 180.932L910.919 192.405L897.299 188.755L919.47 169.744Z" fill="black" fill-opacity="0.02"/>
<path d="M969.332 183.105L960.388 158.232L974.265 161.95L978.963 175.594L989.769 166.105L1003.22 169.708L983.105 186.519L993.158 214.441L979.283 210.723L973.77 194.292L960.78 205.765L947.161 202.116L969.332 183.105Z" fill="black" fill-opacity="0.02"/>
<path d="M1019.19 196.465L1010.25 171.592L1024.13 175.311L1028.83 188.955L1039.63 179.465L1053.08 183.069L1032.97 199.879L1043.02 227.801L1029.14 224.083L1023.63 207.653L1010.64 219.125L997.023 215.476L1019.19 196.465Z" fill="black" fill-opacity="0.02"/>
<path d="M1069.06 209.825L1060.11 184.953L1073.99 188.671L1078.69 202.315L1089.49 192.825L1102.94 196.429L1082.83 213.24L1092.88 241.161L1079.01 237.444L1073.49 221.013L1060.5 232.486L1046.88 228.836L1069.06 209.825Z" fill="black" fill-opacity="0.02"/>
<path d="M1118.92 223.186L1109.97 198.313L1123.85 202.031L1128.55 215.675L1139.35 206.186L1152.8 209.789L1132.69 226.6L1142.74 254.522L1128.87 250.804L1123.35 234.373L1110.37 245.846L1096.75 242.197L1118.92 223.186Z" fill="black" fill-opacity="0.02"/>
<path d="M1168.78 236.546L1159.83 211.673L1173.71 215.392L1178.41 229.036L1189.21 219.546L1202.66 223.15L1182.55 239.961L1192.6 267.882L1178.73 264.164L1173.22 247.734L1160.23 259.207L1146.61 255.557L1168.78 236.546Z" fill="black" fill-opacity="0.02"/>
<path d="M1218.64 249.906L1209.7 225.034L1223.57 228.752L1228.27 242.396L1239.08 232.906L1252.53 236.51L1232.41 253.321L1242.47 281.243L1228.59 277.525L1223.08 261.094L1210.09 272.567L1196.47 268.917L1218.64 249.906Z" fill="black" fill-opacity="0.02"/>
<path d="M1268.5 263.267L1259.56 238.394L1273.44 242.113L1278.13 255.757L1288.94 246.267L1302.39 249.87L1282.27 266.681L1292.33 294.603L1278.45 290.885L1272.94 274.454L1259.95 285.927L1246.33 282.278L1268.5 263.267Z" fill="black" fill-opacity="0.02"/>
<path d="M1318.36 276.627L1309.42 251.754L1323.3 255.473L1327.99 269.117L1338.8 259.627L1352.25 263.231L1332.14 280.042L1342.19 307.963L1328.31 304.245L1322.8 287.815L1309.81 299.288L1296.19 295.638L1318.36 276.627Z" fill="black" fill-opacity="0.02"/>
<path d="M1368.22 289.988L1359.28 265.115L1373.16 268.833L1377.86 282.477L1388.66 272.987L1402.11 276.591L1382 293.402L1392.05 321.324L1378.18 317.606L1372.66 301.175L1359.67 312.648L1346.05 308.999L1368.22 289.988Z" fill="black" fill-opacity="0.02"/>
<path d="M1418.09 303.348L1409.14 278.475L1423.02 282.194L1427.72 295.838L1438.52 286.348L1451.97 289.951L1431.86 306.762L1441.91 334.684L1428.04 330.966L1422.52 314.536L1409.53 326.008L1395.91 322.359L1418.09 303.348Z" fill="black" fill-opacity="0.02"/>
</g>
<defs>
<clipPath id="clip0">
<rect width="1440" height="303" fill="white"/>
</clipPath>
</defs>
</svg>
